<svg xmlns="http://www.w3.org/2000/svg" version="1.1" xmlns:xlink="http://www.w3.org/1999/xlink" xmlns:svgjs="http://svgjs.dev/svgjs" viewBox="0 0 14.753043333444795 3.1207664288100854"><g transform="matrix(1,0,0,1,2.841565013905866,0.5788394644050427)"><g><path d=" M 0.9067500000000001 0.6232499999999999 Q 0.9615 0.6944999999999999 0.9615 0.7859999999999998 Q 0.9615 0.9209999999999998 0.8685 0.9974999999999998 Q 0.7755 1.0739999999999998 0.6075 1.0739999999999998 L 0.084 1.0739999999999998 L 0.084 0.016499999999999737 L 0.591 0.016499999999999737 Q 0.753 0.016499999999999737 0.8452500000000001 0.0884999999999998 Q 0.9375 0.16049999999999986 0.9375 0.2909999999999998 Q 0.9375 0.3839999999999998 0.88875 0.4462499999999998 Q 0.84 0.5084999999999998 0.759 0.5309999999999998 Q 0.852 0.5519999999999998 0.9067500000000001 0.6232499999999999 M 0.378 0.4364999999999998 L 0.5265 0.4364999999999998 Q 0.6375000000000001 0.4364999999999998 0.6375000000000001 0.34499999999999986 Q 0.6375000000000001 0.25049999999999983 0.5265 0.25049999999999983 L 0.378 0.25049999999999983 L 0.378 0.4364999999999998 M 0.66 0.7439999999999998 Q 0.66 0.6959999999999998 0.63075 0.6704999999999999 Q 0.6015 0.6449999999999998 0.5475 0.6449999999999998 L 0.378 0.6449999999999998 L 0.378 0.8369999999999999 L 0.549 0.8369999999999999 Q 0.66 0.8369999999999999 0.66 0.7439999999999998 M 1.3995307617187502 0.2519999999999998 L 1.3995307617187502 0.4244999999999999 L 1.7370307617187501 0.4244999999999999 L 1.7370307617187501 0.6479999999999999 L 1.3995307617187502 0.6479999999999999 L 1.3995307617187502 0.8384999999999998 L 1.78203076171875 0.8384999999999998 L 1.78203076171875 1.0739999999999998 L 1.1055307617187502 1.0739999999999998 L 1.1055307617187502 0.016499999999999737 L 1.78203076171875 0.016499999999999737 L 1.78203076171875 0.2519999999999998 L 1.3995307617187502 0.2519999999999998 M 2.2364912109375004 0.8489999999999999 L 2.5649912109375004 0.8489999999999999 L 2.5649912109375004 1.0739999999999998 L 1.9424912109375003 1.0739999999999998 L 1.9424912109375003 0.016499999999999737 L 2.2364912109375004 0.016499999999999737 L 2.2364912109375004 0.8489999999999999 M 2.988032958984375 0.8489999999999999 L 3.316532958984375 0.8489999999999999 L 3.316532958984375 1.0739999999999998 L 2.694032958984375 1.0739999999999998 L 2.694032958984375 0.016499999999999737 L 2.988032958984375 0.016499999999999737 L 2.988032958984375 0.8489999999999999 M 3.4748247070312495 0.2647499999999998 Q 3.5400747070312497 0.14249999999999985 3.6600747070312494 0.07424999999999982 Q 3.7800747070312495 0.005999999999999783 3.9360747070312496 0.005999999999999783 Q 4.13407470703125 0.005999999999999783 4.269074707031249 0.1117499999999998 Q 4.404074707031249 0.2174999999999998 4.44307470703125 0.3989999999999998 L 4.126574707031249 0.3989999999999998 Q 4.09807470703125 0.33899999999999986 4.04782470703125 0.3074999999999998 Q 3.9975747070312497 0.2759999999999998 3.93157470703125 0.2759999999999998 Q 3.8295747070312496 0.2759999999999998 3.7688247070312495 0.3487499999999998 Q 3.7080747070312494 0.4214999999999999 3.7080747070312494 0.5429999999999998 Q 3.7080747070312494 0.6659999999999998 3.7688247070312495 0.7387499999999998 Q 3.8295747070312496 0.8114999999999999 3.93157470703125 0.8114999999999999 Q 3.9975747070312497 0.8114999999999999 4.04782470703125 0.7799999999999998 Q 4.09807470703125 0.7484999999999998 4.126574707031249 0.6884999999999999 L 4.44307470703125 0.6884999999999999 Q 4.404074707031249 0.8699999999999999 4.269074707031249 0.9757499999999999 Q 4.13407470703125 1.0815 3.9360747070312496 1.0815 Q 3.7800747070312495 1.0815 3.6600747070312494 1.0132499999999998 Q 3.5400747070312497 0.9449999999999998 3.4748247070312495 0.8227499999999999 Q 3.4095747070312497 0.7004999999999999 3.4095747070312497 0.5429999999999998 Q 3.4095747070312497 0.3869999999999998 3.4748247070312495 0.2647499999999998 M 4.831568115234374 1.0147499999999998 Q 4.7070681152343745 0.9449999999999998 4.634318115234374 0.8212499999999998 Q 4.561568115234374 0.6974999999999998 4.561568115234374 0.5414999999999999 Q 4.561568115234374 0.38549999999999984 4.634318115234374 0.2617499999999998 Q 4.7070681152343745 0.1379999999999998 4.831568115234374 0.06899999999999973 Q 4.956068115234374 -2.220446049250313e-16 5.1045681152343745 -2.220446049250313e-16 Q 5.254568115234374 -2.220446049250313e-16 5.378318115234374 0.06899999999999973 Q 5.5020681152343744 0.1379999999999998 5.5740681152343745 0.2617499999999998 Q 5.646068115234375 0.38549999999999984 5.646068115234375 0.5414999999999999 Q 5.646068115234375 0.6974999999999998 5.5740681152343745 0.8212499999999998 Q 5.5020681152343744 0.9449999999999998 5.377568115234374 1.0147499999999998 Q 5.253068115234374 1.0844999999999998 5.1045681152343745 1.0844999999999998 Q 4.956068115234374 1.0844999999999998 4.831568115234374 1.0147499999999998 M 5.282318115234374 0.7379999999999998 Q 5.347568115234374 0.6644999999999999 5.347568115234374 0.5414999999999999 Q 5.347568115234374 0.41549999999999987 5.282318115234374 0.3427499999999998 Q 5.217068115234374 0.2699999999999998 5.1045681152343745 0.2699999999999998 Q 4.990568115234375 0.2699999999999998 4.926068115234374 0.3427499999999998 Q 4.861568115234374 0.41549999999999987 4.861568115234374 0.5414999999999999 Q 4.861568115234374 0.6659999999999998 4.926068115234374 0.7387499999999998 Q 4.990568115234375 0.8114999999999999 5.1045681152343745 0.8114999999999999 Q 5.217068115234374 0.8114999999999999 5.282318115234374 0.7379999999999998" fill="#f9f9f9" fill-rule="nonzero"></path></g><g><path d=" M 0.42975 1.4403374999999998 L 0.42975 1.9630874999999999 L 0.33225 1.9630874999999999 L 0.33225 1.7410875 L 0.15975 1.7410875 L 0.15975 1.9630874999999999 L 0.063 1.9630874999999999 L 0.063 1.4403374999999998 L 0.15975 1.4403374999999998 L 0.15975 1.6585874999999999 L 0.33225 1.6585874999999999 L 0.33225 1.4403374999999998 L 0.42975 1.4403374999999998 M 0.59642431640625 1.9272749999999998 Q 0.54598681640625 1.8817125 0.54598681640625 1.7763375 L 0.54598681640625 1.4403374999999998 L 0.64348681640625 1.4403374999999998 L 0.64348681640625 1.7868374999999999 Q 0.64348681640625 1.8460874999999999 0.66954931640625 1.8685874999999998 Q 0.69561181640625 1.8910874999999998 0.73048681640625 1.8910874999999998 Q 0.76573681640625 1.8910874999999998 0.79048681640625 1.8689624999999999 Q 0.81523681640625 1.8468375 0.81523681640625 1.7868374999999999 L 0.81523681640625 1.4403374999999998 L 0.91273681640625 1.4403374999999998 L 0.91273681640625 1.7763375 Q 0.91273681640625 1.8817125 0.8636118164062501 1.9272749999999998 Q 0.81448681640625 1.9728374999999998 0.7319868164062501 1.9728374999999998 Q 0.6468618164062501 1.9728374999999998 0.59642431640625 1.9272749999999998 M 1.4662155761718751 1.4313374999999997 L 1.4662155761718751 1.9630874999999999 L 1.3732155761718752 1.9630874999999999 L 1.3732155761718752 1.7388374999999998 L 1.376590576171875 1.6503374999999998 L 1.3499655761718752 1.6908374999999998 L 1.247215576171875 1.8115875 L 1.144465576171875 1.6908374999999998 L 1.117840576171875 1.6503374999999998 L 1.121965576171875 1.7388374999999998 L 1.121965576171875 1.9630874999999999 L 1.028965576171875 1.9630874999999999 L 1.028965576171875 1.4313374999999997 L 1.036465576171875 1.4313374999999997 L 1.247965576171875 1.6807124999999998 L 1.457965576171875 1.4313374999999997 L 1.4662155761718751 1.4313374999999997 M 1.839697998046875 1.8873375 L 1.652947998046875 1.8873375 L 1.625197998046875 1.9630874999999999 L 1.520197998046875 1.9630874999999999 L 1.741447998046875 1.4313374999999997 L 1.748947998046875 1.4313374999999997 L 1.970947998046875 1.9630874999999999 L 1.868947998046875 1.9630874999999999 L 1.839697998046875 1.8873375 M 1.811947998046875 1.8145874999999998 L 1.757197998046875 1.6720875 L 1.744447998046875 1.6300875 L 1.732447998046875 1.6720875 L 1.679947998046875 1.8145874999999998 L 1.811947998046875 1.8145874999999998 M 2.39471044921875 1.4403374999999998 L 2.39471044921875 1.9735874999999998 L 2.3872104492187503 1.9735874999999998 L 2.13671044921875 1.6878374999999999 L 2.11346044921875 1.6578374999999999 L 2.1172104492187502 1.7305875 L 2.1172104492187502 1.9630874999999999 L 2.0249604492187503 1.9630874999999999 L 2.0249604492187503 1.4313374999999997 L 2.03321044921875 1.4313374999999997 L 2.27996044921875 1.7193375 L 2.3062104492187503 1.7534625 L 2.30246044921875 1.6818374999999999 L 2.30246044921875 1.4403374999999998 L 2.39471044921875 1.4403374999999998 M 2.900220336914063 1.9630874999999999 L 2.765970336914063 1.7740874999999998 L 2.765970336914063 1.9630874999999999 L 2.670720336914063 1.9630874999999999 L 2.670720336914063 1.4403374999999998 L 2.816220336914063 1.4403374999999998 Q 3.0022203369140628 1.4403374999999998 3.0022203369140628 1.6068375 Q 3.0022203369140628 1.6439624999999998 2.9902203369140627 1.6797749999999998 Q 2.9782203369140627 1.7155874999999998 2.951032836914063 1.7433375 Q 2.923845336914063 1.7710875 2.881470336914063 1.7815874999999999 L 3.016470336914063 1.9630874999999999 L 2.900220336914063 1.9630874999999999 M 2.805720336914063 1.7268374999999998 Q 2.8375953369140627 1.7268374999999998 2.860282836914063 1.71165 Q 2.882970336914063 1.6964625 2.8945953369140627 1.67115 Q 2.906220336914063 1.6458374999999998 2.906220336914063 1.6158374999999998 Q 2.906220336914063 1.5640874999999999 2.882407836914063 1.5397124999999998 Q 2.858595336914063 1.5153374999999998 2.8034703369140628 1.5153374999999998 L 2.765970336914063 1.5153374999999998 L 2.765970336914063 1.7268374999999998 L 2.805720336914063 1.7268374999999998 M 3.392990112304688 1.8783374999999998 L 3.392990112304688 1.9630874999999999 L 3.104990112304688 1.9630874999999999 L 3.104990112304688 1.4403374999999998 L 3.377990112304688 1.4403374999999998 L 3.377990112304688 1.5220874999999998 L 3.198740112304688 1.5220874999999998 L 3.198740112304688 1.6443374999999998 L 3.341240112304688 1.6443374999999998 L 3.341240112304688 1.7238375 L 3.198740112304688 1.7238375 L 3.198740112304688 1.8783374999999998 L 3.392990112304688 1.8783374999999998 M 3.552163696289063 1.9630874999999999 Q 3.521226196289063 1.9548374999999998 3.497976196289063 1.9417125 Q 3.474726196289063 1.9285875 3.461226196289063 1.9143374999999998 L 3.4994761962890633 1.8355875 Q 3.508101196289063 1.8468375 3.5257261962890634 1.8595875 Q 3.543351196289063 1.8723375 3.566038696289063 1.8813374999999999 Q 3.588726196289063 1.8903374999999998 3.611226196289063 1.8903374999999998 Q 3.6408511962890633 1.8903374999999998 3.660913696289063 1.8740249999999998 Q 3.680976196289063 1.8577124999999999 3.680976196289063 1.8280874999999999 Q 3.680976196289063 1.8089624999999998 3.671788696289063 1.7949 Q 3.662601196289063 1.7808374999999999 3.647413696289063 1.7697749999999999 Q 3.6322261962890634 1.7587125 3.600726196289063 1.7395874999999998 Q 3.5576011962890632 1.7133375 3.533226196289063 1.694775 Q 3.508851196289063 1.6762124999999999 3.4910386962890634 1.6460249999999998 Q 3.473226196289063 1.6158374999999998 3.473226196289063 1.5730874999999997 Q 3.473226196289063 1.5314625 3.4910386962890634 1.4993999999999998 Q 3.508851196289063 1.4673374999999997 3.543726196289063 1.4493375 Q 3.578601196289063 1.4313374999999997 3.6277261962890632 1.4313374999999997 Q 3.707601196289063 1.4313374999999997 3.761226196289063 1.4800874999999998 L 3.719226196289063 1.5565874999999998 Q 3.7128511962890633 1.5475875 3.7001011962890633 1.5369 Q 3.6873511962890633 1.5262124999999997 3.669351196289063 1.518525 Q 3.6513511962890632 1.5108374999999998 3.6314761962890634 1.5108374999999998 Q 3.602601196289063 1.5108374999999998 3.586663696289063 1.5275249999999998 Q 3.5707261962890633 1.5442125 3.5707261962890633 1.5693374999999998 Q 3.5707261962890633 1.5884624999999999 3.580288696289063 1.6032749999999998 Q 3.589851196289063 1.6180875 3.6054136962890633 1.6297125 Q 3.620976196289063 1.6413375 3.647226196289063 1.6570874999999998 Q 3.694851196289063 1.6852125 3.719976196289063 1.7043374999999998 Q 3.7451011962890632 1.7234625 3.762163696289063 1.7529 Q 3.779226196289063 1.7823375 3.779226196289063 1.8250875 Q 3.779226196289063 1.8704625 3.7597261962890633 1.9034624999999998 Q 3.740226196289063 1.9364625 3.703851196289063 1.9539 Q 3.667476196289063 1.9713375 3.6179761962890633 1.9713375 Q 3.5831011962890633 1.9713375 3.552163696289063 1.9630874999999999 M 3.9378724365234383 1.9388999999999998 Q 3.8887474365234382 1.9057125 3.863622436523438 1.8447749999999998 Q 3.8384974365234386 1.7838375 3.8384974365234386 1.7013375 Q 3.8384974365234386 1.6195874999999997 3.863434936523438 1.5586499999999999 Q 3.8883724365234382 1.4977125 3.9369349365234383 1.4645249999999999 Q 3.9854974365234384 1.4313374999999997 4.054497436523438 1.4313374999999997 Q 4.126122436523438 1.4313374999999997 4.175247436523438 1.4648999999999999 Q 4.2243724365234385 1.4984624999999998 4.248934936523439 1.5592125 Q 4.273497436523439 1.6199624999999997 4.273497436523439 1.7013375 Q 4.273497436523439 1.7838375 4.2481849365234385 1.8447749999999998 Q 4.2228724365234385 1.9057125 4.174122436523438 1.9388999999999998 Q 4.125372436523438 1.9720874999999998 4.056747436523438 1.9720874999999998 Q 3.9869974365234384 1.9720874999999998 3.9378724365234383 1.9388999999999998 M 4.116559936523438 1.8704625 Q 4.142997436523438 1.8490874999999998 4.158372436523439 1.8055875 Q 4.173747436523438 1.7620874999999998 4.173747436523438 1.6990874999999999 Q 4.173747436523438 1.6064625 4.142434936523438 1.5578999999999998 Q 4.111122436523439 1.5093375 4.054497436523438 1.5093375 Q 3.9993724365234384 1.5093375 3.969184936523438 1.5578999999999998 Q 3.9389974365234384 1.6064625 3.9389974365234384 1.6998375 Q 3.9389974365234384 1.7635874999999999 3.9534349365234385 1.806525 Q 3.9678724365234386 1.8494624999999998 3.9943099365234382 1.87065 Q 4.020747436523438 1.8918374999999998 4.056747436523438 1.8918374999999998 Q 4.090122436523439 1.8918374999999998 4.116559936523438 1.8704625 M 4.406449951171876 1.9272749999999998 Q 4.356012451171876 1.8817125 4.356012451171876 1.7763375 L 4.356012451171876 1.4403374999999998 L 4.453512451171876 1.4403374999999998 L 4.453512451171876 1.7868374999999999 Q 4.453512451171876 1.8460874999999999 4.479574951171876 1.8685874999999998 Q 4.505637451171875 1.8910874999999998 4.5405124511718755 1.8910874999999998 Q 4.575762451171876 1.8910874999999998 4.600512451171875 1.8689624999999999 Q 4.625262451171875 1.8468375 4.625262451171875 1.7868374999999999 L 4.625262451171875 1.4403374999999998 L 4.722762451171875 1.4403374999999998 L 4.722762451171875 1.7763375 Q 4.722762451171875 1.8817125 4.673637451171875 1.9272749999999998 Q 4.624512451171875 1.9728374999999998 4.542012451171876 1.9728374999999998 Q 4.456887451171876 1.9728374999999998 4.406449951171876 1.9272749999999998 M 5.0684912109375 1.9630874999999999 L 4.9342412109375005 1.7740874999999998 L 4.9342412109375005 1.9630874999999999 L 4.8389912109375 1.9630874999999999 L 4.8389912109375 1.4403374999999998 L 4.984491210937501 1.4403374999999998 Q 5.1704912109375005 1.4403374999999998 5.1704912109375005 1.6068375 Q 5.1704912109375005 1.6439624999999998 5.158491210937501 1.6797749999999998 Q 5.1464912109375005 1.7155874999999998 5.1193037109375 1.7433375 Q 5.092116210937501 1.7710875 5.0497412109375 1.7815874999999999 L 5.184741210937501 1.9630874999999999 L 5.0684912109375 1.9630874999999999 M 4.973991210937501 1.7268374999999998 Q 5.0058662109375005 1.7268374999999998 5.0285537109375005 1.71165 Q 5.0512412109375004 1.6964625 5.062866210937501 1.67115 Q 5.0744912109375 1.6458374999999998 5.0744912109375 1.6158374999999998 Q 5.0744912109375 1.5640874999999999 5.0506787109375 1.5397124999999998 Q 5.0268662109375 1.5153374999999998 4.971741210937501 1.5153374999999998 L 4.9342412109375005 1.5153374999999998 L 4.9342412109375005 1.7268374999999998 L 4.973991210937501 1.7268374999999998 M 5.347510986328126 1.941525 Q 5.2991359863281255 1.9109625 5.269698486328126 1.8483375 Q 5.240260986328126 1.7857124999999998 5.240260986328126 1.6945875 Q 5.240260986328126 1.6117124999999999 5.269510986328126 1.5522749999999998 Q 5.2987609863281255 1.4928374999999998 5.348823486328126 1.4620875 Q 5.398885986328126 1.4313374999999997 5.4607609863281255 1.4313374999999997 Q 5.498635986328126 1.4313374999999997 5.524885986328126 1.43865 Q 5.551135986328126 1.4459624999999998 5.566135986328126 1.4555249999999997 Q 5.581135986328126 1.4650874999999999 5.595010986328126 1.4778375 L 5.553010986328125 1.5565874999999998 Q 5.539885986328126 1.5423375 5.529760986328126 1.5346499999999998 Q 5.519635986328126 1.5269624999999998 5.504073486328126 1.5222749999999998 Q 5.488510986328126 1.5175874999999999 5.464510986328126 1.5175874999999999 Q 5.427010986328126 1.5175874999999999 5.400010986328126 1.5395249999999998 Q 5.373010986328126 1.5614624999999998 5.358760986328126 1.600275 Q 5.3445109863281255 1.6390874999999998 5.3445109863281255 1.6893375 Q 5.3445109863281255 1.7523374999999999 5.359323486328126 1.7969624999999998 Q 5.374135986328126 1.8415875 5.399448486328126 1.8640875 Q 5.424760986328126 1.8865874999999999 5.456260986328126 1.8865874999999999 Q 5.489635986328126 1.8865874999999999 5.515323486328126 1.8772125 Q 5.541010986328126 1.8678374999999998 5.5545109863281255 1.8535875 L 5.595760986328126 1.9278374999999999 Q 5.572885986328126 1.9465875 5.540448486328126 1.9593375 Q 5.5080109863281255 1.9720874999999998 5.452510986328126 1.9720874999999998 Q 5.395885986328126 1.9720874999999998 5.347510986328126 1.941525 M 5.960244140625001 1.8783374999999998 L 5.960244140625001 1.9630874999999999 L 5.672244140625001 1.9630874999999999 L 5.672244140625001 1.4403374999999998 L 5.945244140625001 1.4403374999999998 L 5.945244140625001 1.5220874999999998 L 5.765994140625001 1.5220874999999998 L 5.765994140625001 1.6443374999999998 L 5.908494140625001 1.6443374999999998 L 5.908494140625001 1.7238375 L 5.765994140625001 1.7238375 L 5.765994140625001 1.8783374999999998 L 5.960244140625001 1.8783374999999998 M 6.575982055664063 1.9240875 L 6.511482055664064 1.9788374999999998 L 6.467232055664064 1.9293375 Q 6.4394820556640635 1.9499624999999998 6.409669555664064 1.9602749999999998 Q 6.379857055664064 1.9705875 6.340482055664063 1.9705875 Q 6.286107055664064 1.9705875 6.249357055664063 1.9518375 Q 6.212607055664064 1.9330874999999998 6.194794555664064 1.9034624999999998 Q 6.176982055664063 1.8738374999999998 6.176982055664063 1.8415875 Q 6.176982055664063 1.8089624999999998 6.187857055664064 1.7847749999999998 Q 6.198732055664064 1.7605874999999997 6.218232055664064 1.7424 Q 6.237732055664064 1.7242125 6.268482055664064 1.7050874999999999 Q 6.237357055664064 1.6709625 6.219544555664064 1.6388999999999998 Q 6.201732055664063 1.6068375 6.201732055664063 1.5670875 Q 6.201732055664063 1.5239624999999999 6.222544555664064 1.4920874999999998 Q 6.243357055664064 1.4602125 6.276732055664064 1.4435249999999997 Q 6.310107055664064 1.4268375 6.347232055664064 1.4268375 Q 6.385482055664064 1.4268375 6.4166070556640635 1.4407124999999998 Q 6.447732055664064 1.4545874999999997 6.466107055664064 1.4825249999999999 Q 6.484482055664063 1.5104624999999998 6.484482055664063 1.5513374999999998 Q 6.484482055664063 1.5944625 6.458607055664063 1.6372125 Q 6.432732055664064 1.6799624999999998 6.386232055664064 1.7110874999999999 Q 6.444732055664064 1.7793374999999998 6.476982055664064 1.8145874999999998 Q 6.490857055664064 1.7947125 6.501544555664064 1.7680874999999998 Q 6.512232055664064 1.7414625 6.517482055664064 1.7155874999999998 L 6.590982055664064 1.7598375 Q 6.584982055664064 1.7887125 6.571294555664064 1.8129 Q 6.5576070556640635 1.8370875 6.530982055664063 1.8738374999999998 L 6.575982055664063 1.9240875 M 6.313294555664064 1.5018375 Q 6.2999820556640636 1.5115874999999999 6.292857055664064 1.5273374999999998 Q 6.285732055664064 1.5430875 6.285732055664064 1.5610874999999997 Q 6.285732055664064 1.6042124999999998 6.341982055664063 1.6653375 Q 6.3689820556640635 1.6420875 6.383232055664064 1.6139625 Q 6.397482055664064 1.5858374999999998 6.397482055664064 1.5550875 Q 6.397482055664064 1.5269624999999998 6.384169555664064 1.5095249999999998 Q 6.370857055664064 1.4920874999999998 6.3442320556640635 1.4920874999999998 Q 6.326607055664064 1.4920874999999998 6.313294555664064 1.5018375 M 6.4162320556640635 1.8715875 L 6.310482055664064 1.7508374999999998 Q 6.287232055664064 1.7692124999999999 6.277482055664064 1.7870249999999999 Q 6.267732055664064 1.8048374999999999 6.267732055664064 1.8280874999999999 Q 6.267732055664064 1.8427125 6.2741070556640635 1.8584625 Q 6.280482055664064 1.8742124999999998 6.296044555664063 1.8856499999999998 Q 6.311607055664064 1.8970874999999998 6.337482055664064 1.8970874999999998 Q 6.380232055664064 1.8970874999999998 6.4162320556640635 1.8715875 M 6.887226562500001 1.941525 Q 6.838851562500001 1.9109625 6.809414062500002 1.8483375 Q 6.779976562500002 1.7857124999999998 6.779976562500002 1.6945875 Q 6.779976562500002 1.6117124999999999 6.809226562500002 1.5522749999999998 Q 6.838476562500001 1.4928374999999998 6.888539062500001 1.4620875 Q 6.9386015625000015 1.4313374999999997 7.000476562500001 1.4313374999999997 Q 7.038351562500002 1.4313374999999997 7.064601562500002 1.43865 Q 7.090851562500002 1.4459624999999998 7.105851562500002 1.4555249999999997 Q 7.120851562500001 1.4650874999999999 7.134726562500002 1.4778375 L 7.092726562500001 1.5565874999999998 Q 7.0796015625000015 1.5423375 7.069476562500002 1.5346499999999998 Q 7.059351562500002 1.5269624999999998 7.043789062500002 1.5222749999999998 Q 7.028226562500001 1.5175874999999999 7.004226562500001 1.5175874999999999 Q 6.966726562500002 1.5175874999999999 6.9397265625000015 1.5395249999999998 Q 6.912726562500001 1.5614624999999998 6.898476562500002 1.600275 Q 6.884226562500001 1.6390874999999998 6.884226562500001 1.6893375 Q 6.884226562500001 1.7523374999999999 6.899039062500002 1.7969624999999998 Q 6.913851562500001 1.8415875 6.9391640625000015 1.8640875 Q 6.964476562500002 1.8865874999999999 6.995976562500002 1.8865874999999999 Q 7.029351562500001 1.8865874999999999 7.0550390625000015 1.8772125 Q 7.0807265625000015 1.8678374999999998 7.094226562500001 1.8535875 L 7.135476562500002 1.9278374999999999 Q 7.112601562500002 1.9465875 7.0801640625000015 1.9593375 Q 7.047726562500001 1.9720874999999998 6.992226562500002 1.9720874999999998 Q 6.935601562500001 1.9720874999999998 6.887226562500001 1.941525 M 7.272327392578127 1.9388999999999998 Q 7.223202392578127 1.9057125 7.198077392578127 1.8447749999999998 Q 7.172952392578127 1.7838375 7.172952392578127 1.7013375 Q 7.172952392578127 1.6195874999999997 7.197889892578127 1.5586499999999999 Q 7.222827392578127 1.4977125 7.271389892578127 1.4645249999999999 Q 7.319952392578126 1.4313374999999997 7.388952392578127 1.4313374999999997 Q 7.460577392578127 1.4313374999999997 7.509702392578126 1.4648999999999999 Q 7.558827392578126 1.4984624999999998 7.5833898925781265 1.5592125 Q 7.6079523925781265 1.6199624999999997 7.6079523925781265 1.7013375 Q 7.6079523925781265 1.7838375 7.582639892578126 1.8447749999999998 Q 7.557327392578126 1.9057125 7.508577392578126 1.9388999999999998 Q 7.459827392578127 1.9720874999999998 7.391202392578126 1.9720874999999998 Q 7.321452392578126 1.9720874999999998 7.272327392578127 1.9388999999999998 M 7.451014892578127 1.8704625 Q 7.477452392578127 1.8490874999999998 7.492827392578127 1.8055875 Q 7.508202392578126 1.7620874999999998 7.508202392578126 1.6990874999999999 Q 7.508202392578126 1.6064625 7.476889892578127 1.5578999999999998 Q 7.445577392578127 1.5093375 7.388952392578127 1.5093375 Q 7.333827392578127 1.5093375 7.3036398925781265 1.5578999999999998 Q 7.273452392578126 1.6064625 7.273452392578126 1.6998375 Q 7.273452392578126 1.7635874999999999 7.287889892578127 1.806525 Q 7.3023273925781265 1.8494624999999998 7.328764892578127 1.87065 Q 7.355202392578127 1.8918374999999998 7.391202392578126 1.8918374999999998 Q 7.424577392578127 1.8918374999999998 7.451014892578127 1.8704625 M 8.073717407226564 1.4403374999999998 L 8.073717407226564 1.9735874999999998 L 8.066217407226564 1.9735874999999998 L 7.815717407226565 1.6878374999999999 L 7.792467407226565 1.6578374999999999 L 7.796217407226564 1.7305875 L 7.796217407226564 1.9630874999999999 L 7.703967407226564 1.9630874999999999 L 7.703967407226564 1.4313374999999997 L 7.712217407226564 1.4313374999999997 L 7.958967407226564 1.7193375 L 7.985217407226564 1.7534625 L 7.981467407226564 1.6818374999999999 L 7.981467407226564 1.4403374999999998 L 8.073717407226564 1.4403374999999998 M 8.265162963867189 1.9630874999999999 Q 8.234225463867189 1.9548374999999998 8.21097546386719 1.9417125 Q 8.187725463867189 1.9285875 8.174225463867188 1.9143374999999998 L 8.212475463867188 1.8355875 Q 8.221100463867188 1.8468375 8.238725463867189 1.8595875 Q 8.25635046386719 1.8723375 8.27903796386719 1.8813374999999999 Q 8.30172546386719 1.8903374999999998 8.324225463867188 1.8903374999999998 Q 8.353850463867188 1.8903374999999998 8.37391296386719 1.8740249999999998 Q 8.39397546386719 1.8577124999999999 8.39397546386719 1.8280874999999999 Q 8.39397546386719 1.8089624999999998 8.384787963867188 1.7949 Q 8.375600463867189 1.7808374999999999 8.360412963867189 1.7697749999999999 Q 8.34522546386719 1.7587125 8.313725463867188 1.7395874999999998 Q 8.270600463867188 1.7133375 8.246225463867189 1.694775 Q 8.221850463867188 1.6762124999999999 8.204037963867188 1.6460249999999998 Q 8.186225463867189 1.6158374999999998 8.186225463867189 1.5730874999999997 Q 8.186225463867189 1.5314625 8.204037963867188 1.4993999999999998 Q 8.221850463867188 1.4673374999999997 8.25672546386719 1.4493375 Q 8.291600463867189 1.4313374999999997 8.340725463867189 1.4313374999999997 Q 8.420600463867189 1.4313374999999997 8.474225463867189 1.4800874999999998 L 8.432225463867189 1.5565874999999998 Q 8.425850463867189 1.5475875 8.413100463867188 1.5369 Q 8.400350463867188 1.5262124999999997 8.382350463867189 1.518525 Q 8.364350463867188 1.5108374999999998 8.34447546386719 1.5108374999999998 Q 8.315600463867188 1.5108374999999998 8.299662963867188 1.5275249999999998 Q 8.283725463867189 1.5442125 8.283725463867189 1.5693374999999998 Q 8.283725463867189 1.5884624999999999 8.293287963867188 1.6032749999999998 Q 8.30285046386719 1.6180875 8.318412963867189 1.6297125 Q 8.333975463867189 1.6413375 8.360225463867188 1.6570874999999998 Q 8.407850463867188 1.6852125 8.432975463867189 1.7043374999999998 Q 8.458100463867188 1.7234625 8.475162963867188 1.7529 Q 8.49222546386719 1.7823375 8.49222546386719 1.8250875 Q 8.49222546386719 1.8704625 8.472725463867189 1.9034624999999998 Q 8.453225463867188 1.9364625 8.416850463867188 1.9539 Q 8.380475463867189 1.9713375 8.330975463867189 1.9713375 Q 8.29610046386719 1.9713375 8.265162963867189 1.9630874999999999 M 8.622184204101563 1.9272749999999998 Q 8.571746704101564 1.8817125 8.571746704101564 1.7763375 L 8.571746704101564 1.4403374999999998 L 8.669246704101564 1.4403374999999998 L 8.669246704101564 1.7868374999999999 Q 8.669246704101564 1.8460874999999999 8.695309204101564 1.8685874999999998 Q 8.721371704101564 1.8910874999999998 8.756246704101564 1.8910874999999998 Q 8.791496704101563 1.8910874999999998 8.816246704101564 1.8689624999999999 Q 8.840996704101563 1.8468375 8.840996704101563 1.7868374999999999 L 8.840996704101563 1.4403374999999998 L 8.938496704101563 1.4403374999999998 L 8.938496704101563 1.7763375 Q 8.938496704101563 1.8817125 8.889371704101563 1.9272749999999998 Q 8.840246704101563 1.9728374999999998 8.757746704101564 1.9728374999999998 Q 8.672621704101564 1.9728374999999998 8.622184204101563 1.9272749999999998 M 9.305975463867188 1.8805874999999999 L 9.305975463867188 1.9630874999999999 L 9.05472546386719 1.9630874999999999 L 9.05472546386719 1.4403374999999998 L 9.14997546386719 1.4403374999999998 L 9.14997546386719 1.8805874999999999 L 9.305975463867188 1.8805874999999999 M 9.65099743652344 1.5250875 L 9.530247436523439 1.5250875 L 9.530247436523439 1.9630874999999999 L 9.433497436523439 1.9630874999999999 L 9.433497436523439 1.5250875 L 9.31274743652344 1.5250875 L 9.31274743652344 1.4403374999999998 L 9.65099743652344 1.4403374999999998 L 9.65099743652344 1.5250875 M 9.948767211914063 1.8873375 L 9.762017211914063 1.8873375 L 9.734267211914064 1.9630874999999999 L 9.629267211914064 1.9630874999999999 L 9.850517211914065 1.4313374999999997 L 9.858017211914063 1.4313374999999997 L 10.080017211914065 1.9630874999999999 L 9.978017211914064 1.9630874999999999 L 9.948767211914063 1.8873375 M 9.921017211914064 1.8145874999999998 L 9.866267211914064 1.6720875 L 9.853517211914063 1.6300875 L 9.841517211914065 1.6720875 L 9.789017211914064 1.8145874999999998 L 9.921017211914064 1.8145874999999998 M 10.50377966308594 1.4403374999999998 L 10.50377966308594 1.9735874999999998 L 10.49627966308594 1.9735874999999998 L 10.245779663085939 1.6878374999999999 L 10.22252966308594 1.6578374999999999 L 10.22627966308594 1.7305875 L 10.22627966308594 1.9630874999999999 L 10.13402966308594 1.9630874999999999 L 10.13402966308594 1.4313374999999997 L 10.142279663085938 1.4313374999999997 L 10.389029663085939 1.7193375 L 10.41527966308594 1.7534625 L 10.41152966308594 1.6818374999999999 L 10.41152966308594 1.4403374999999998 L 10.50377966308594 1.4403374999999998 M 10.705537719726564 1.941525 Q 10.657162719726564 1.9109625 10.627725219726564 1.8483375 Q 10.598287719726564 1.7857124999999998 10.598287719726564 1.6945875 Q 10.598287719726564 1.6117124999999999 10.627537719726565 1.5522749999999998 Q 10.656787719726564 1.4928374999999998 10.706850219726565 1.4620875 Q 10.756912719726564 1.4313374999999997 10.818787719726565 1.4313374999999997 Q 10.856662719726565 1.4313374999999997 10.882912719726564 1.43865 Q 10.909162719726565 1.4459624999999998 10.924162719726564 1.4555249999999997 Q 10.939162719726564 1.4650874999999999 10.953037719726565 1.4778375 L 10.911037719726565 1.5565874999999998 Q 10.897912719726564 1.5423375 10.887787719726564 1.5346499999999998 Q 10.877662719726564 1.5269624999999998 10.862100219726564 1.5222749999999998 Q 10.846537719726564 1.5175874999999999 10.822537719726565 1.5175874999999999 Q 10.785037719726564 1.5175874999999999 10.758037719726564 1.5395249999999998 Q 10.731037719726565 1.5614624999999998 10.716787719726565 1.600275 Q 10.702537719726564 1.6390874999999998 10.702537719726564 1.6893375 Q 10.702537719726564 1.7523374999999999 10.717350219726564 1.7969624999999998 Q 10.732162719726565 1.8415875 10.757475219726565 1.8640875 Q 10.782787719726564 1.8865874999999999 10.814287719726565 1.8865874999999999 Q 10.847662719726564 1.8865874999999999 10.873350219726564 1.8772125 Q 10.899037719726564 1.8678374999999998 10.912537719726565 1.8535875 L 10.953787719726565 1.9278374999999999 Q 10.930912719726564 1.9465875 10.898475219726564 1.9593375 Q 10.866037719726565 1.9720874999999998 10.810537719726565 1.9720874999999998 Q 10.753912719726564 1.9720874999999998 10.705537719726564 1.941525 M 11.22677819824219 1.7587125 L 11.22677819824219 1.9630874999999999 L 11.13077819824219 1.9630874999999999 L 11.13077819824219 1.7519624999999999 L 10.96577819824219 1.4403374999999998 L 11.07152819824219 1.4403374999999998 L 11.18140319824219 1.6675874999999998 L 11.286778198242189 1.4403374999999998 L 11.39177819824219 1.4403374999999998 L 11.22677819824219 1.7587125" fill="#ff6b00" fill-rule="nonzero"></path></g><g transform="matrix(-1,0,0,1,-2.710633569366934,0)" clip-path="url(#SvgjsClipPath1001)"><g clip-path="url(#b9d24fa9b-240d-4785-ada0-735df30e022739e8e0c5-b664-42c9-b385-4358de534fcb)"><path d=" M -1.5326212188345543 1.8331604107970636 C -1.8815826407645186 1.5494494007967754 -2.1213657698323414 1.2092596867404601 -2.226036861020276 0.8493422976639612 C -2.308830688697251 0.5647991888930501 -2.2805046597139644 0.3597215127166227 -2.2770029107209266 0.33728951669191465 L -2.254778939388874 0.19479260222274883 L -2.2525253385517705 0.18012686139052064 L -2.238795708836493 0.1745448654709257 L -2.1051398438051954 0.12021574990567441 C -2.090924823140388 0.11442572929342343 -1.7520179280221164 -0.02169176126763389 -1.355314839127665 -0.02169176126763389 C -0.9596865444786016 -0.02169176126763389 -0.6198088674612701 0.11442572929342343 -0.6055245052322438 0.12021574990567441 L -0.4718339694188367 0.1745448654709257 L -0.45810433970355935 0.18012686139052064 L -0.45585073886645544 0.19479260222274883 L -0.433626767534403 0.3373241874740239 C -0.4301250185413654 0.35986019584505985 -0.4019723434686251 0.56528457984258 -0.484592817235054 0.849342297663961 C -0.589298579205098 1.20925968674046 -0.8290817082729205 1.5494494007967754 -1.1780084594207756 1.8331604107970636 L -1.3388115468436448 1.963869259349072 L -1.355314839127665 1.977286852025366 L -1.3718528021937946 1.963869259349072 Z" fill="#d4d6c9" transform="matrix(1,0,0,1,0,0)" fill-rule="nonzero"></path></g><g clip-path="url(#b9d24fa9b-240d-4785-ada0-735df30e022739e8e0c5-b664-42c9-b385-4358de534fcb)"><path d=" M -1.5326212188345543 1.8331604107970636 C -1.8815826407645186 1.5494494007967754 -2.1213657698323414 1.2092596867404601 -2.226036861020276 0.8493422976639612 C -2.308830688697251 0.5647991888930501 -2.2805046597139644 0.3597215127166227 -2.2770029107209266 0.33728951669191465 L -2.254778939388874 0.19479260222274883 L -2.2525253385517705 0.18012686139052064 L -2.238795708836493 0.1745448654709257 L -2.1051398438051954 0.12021574990567441 C -2.090924823140388 0.11442572929342343 -1.7520179280221164 -0.02169176126763389 -1.355314839127665 -0.02169176126763389 C -0.9596865444786016 -0.02169176126763389 -0.6198088674612701 0.11442572929342343 -0.6055245052322438 0.12021574990567441 L -0.4718339694188367 0.1745448654709257 L -0.45810433970355935 0.18012686139052064 L -0.45585073886645544 0.19479260222274883 L -0.433626767534403 0.3373241874740239 C -0.4301250185413654 0.35986019584505985 -0.4019723434686251 0.56528457984258 -0.484592817235054 0.849342297663961 C -0.589298579205098 1.20925968674046 -0.8290817082729205 1.5494494007967754 -1.1780084594207756 1.8331604107970636 L -1.3388115468436448 1.963869259349072 L -1.355314839127665 1.977286852025366 L -1.3718528021937946 1.963869259349072 Z" fill="none" transform="matrix(1,0,0,1,0,0)" fill-rule="nonzero" stroke-dasharray="none" stroke-miterlimit="10" stroke-linejoin="miter" stroke-linecap="butt" stroke-width="0.052352880985022006" stroke="#ff6b00"></path></g><g clip-path="url(#b9d24fa9b-240d-4785-ada0-735df30e022739e8e0c5-b664-42c9-b385-4358de534fcb)"><path d=" M -2.1234113459767894 0.28233632704869627 L -2.1354074365866023 0.35937480489553 C -2.139949309042919 0.38835957873889315 -2.2367501326920456 1.0760198710944737 -1.4422344898756454 1.721971212572583 L -1.3553148391276653 1.792630266511308 L -1.268395188379685 1.721971212572583 C -0.47387954556328515 1.0760198710944735 -0.5707150399945211 0.38835957873889315 -0.575222241668728 0.35937480489553 L -0.5872183322785414 0.28233632704869627 C -0.7501016666279672 0.2034602977500704 -0.9916183348012539 0.15883900117541921 -0.9916183348012539 0.15883900117541921 L -0.768754547402763 0.34973632746914846 L -0.8720734780884356 0.41519476409148065 L -0.7515231686944481 0.508181801708586 L -1.0339860305388016 1.0007149323531042 L -0.8238810909565277 0.5116142091374052 L -0.9719600013452889 0.4186271715202999 L -0.8548767701622295 0.33940443440058116 L -1.0007714212781056 0.19486194378696745 L -1.178736545845071 1.1514981637463895 L -1.1787018750629616 1.151567505310608 L -1.1789098997556173 1.1517408592211544 L -1.178736545845071 1.151567505310608 L -1.3162061969083902 0.31132110089205944 L -1.1994003319822055 0.2630247014138239 L -1.1804354141684261 0.3421087554051055 L -1.033673993499818 0.22055299332994843 L -1.1682312988659573 0.2882997015714934 L -1.228073068786585 0.12645649068534595 C -1.267563089609062 0.1233361202955102 -1.3104508470782488 0.12163725197215516 -1.355314839127665 0.12163725197215516 C -1.3977869574138984 0.12158190196370727 -1.440244958458444 0.1231895462418855 -1.4825912802508565 0.12645649068534612 L -1.542433050171482 0.2882997015714934 L -1.6769903555376215 0.22055299332994843 L -1.5302289348690135 0.3421087554051055 L -1.5116800664405454 0.2628513475032775 L -1.3944234813469398 0.31132110089205944 L -1.5318931324102592 1.151567505310608 L -1.5318931324102592 1.1514981637463895 L -1.7098582569772247 0.19486194378696745 L -1.8557529080931006 0.33940443440058116 L -1.7386350061279323 0.4186271715202999 L -1.8867485872988023 0.5116142091374052 L -1.6766436477165287 1.0007149323531042 L -1.9590718387787733 0.508181801708586 L -1.8385215293847854 0.41519476409148065 L -1.941840460070458 0.34973632746914846 L -1.7190113434540764 0.15883900117541921 C -1.7190113434540764 0.15883900117541921 -1.9605280116273631 0.2034602977500704 -2.1234113459767894 0.28233632704869627" fill="#343432" transform="matrix(1,0,0,1,0,0)" fill-rule="nonzero"></path></g></g></g><defs><clipPath id="SvgjsClipPath1001"><path d=" M -2.310633569366934 -0.04790801986611126 h 1.9106335693669343 v 2.0589035397322224 h -1.9106335693669343 Z"></path></clipPath><clipPath id="b9d24fa9b-240d-4785-ada0-735df30e022739e8e0c5-b664-42c9-b385-4358de534fcb"><path d=" M -2.34530435147622 -0.08257365465153982 L -0.3653253267791101 -0.08257365465153982 L -0.3653253267791101 2.0456923051269875 L -2.34530435147622 2.0456923051269875 Z"></path></clipPath></defs></svg>