<svg xmlns="http://www.w3.org/2000/svg" version="1.1" xmlns:xlink="http://www.w3.org/1999/xlink" xmlns:svgjs="http://svgjs.dev/svgjs" viewBox="0 0 15.348978730964392 7.08960347008943"><g transform="matrix(1,0,0,1,0.8562899025915724,4.264151067497858)"><g><path d=" M 4.858399658203124 0.7979999999999997 Q 4.858399658203124 0.8939999999999997 4.806649658203124 0.9539999999999997 Q 4.754899658203124 1.0139999999999998 4.667899658203124 1.0424999999999998 Q 4.580899658203124 1.0709999999999997 4.475899658203124 1.0709999999999997 L 3.9523996582031238 1.0709999999999997 L 3.9523996582031238 0.005999999999999783 L 4.570399658203124 0.005999999999999783 Q 4.645399658203123 0.005999999999999783 4.700149658203124 0.045749999999999735 Q 4.754899658203124 0.08549999999999969 4.784149658203124 0.14849999999999974 Q 4.8133996582031235 0.2114999999999997 4.8133996582031235 0.2789999999999997 Q 4.8133996582031235 0.3524999999999997 4.775149658203124 0.42149999999999976 Q 4.736899658203124 0.4904999999999997 4.660399658203124 0.5249999999999997 Q 4.751899658203124 0.5519999999999997 4.805149658203124 0.6194999999999997 Q 4.858399658203124 0.6869999999999997 4.858399658203124 0.7979999999999997 M 4.561399658203124 0.7379999999999998 Q 4.561399658203124 0.7109999999999997 4.551649658203123 0.6907499999999998 Q 4.541899658203124 0.6704999999999997 4.525399658203124 0.6584999999999996 Q 4.5088996582031236 0.6464999999999997 4.486399658203124 0.6464999999999997 L 4.244899658203124 0.6464999999999997 L 4.244899658203124 0.8249999999999997 L 4.475899658203124 0.8249999999999997 Q 4.499899658203124 0.8249999999999997 4.519399658203124 0.8144999999999998 Q 4.538899658203124 0.8039999999999997 4.550149658203124 0.7844999999999998 Q 4.561399658203124 0.7649999999999997 4.561399658203124 0.7379999999999998 M 4.244899658203124 0.25499999999999967 L 4.244899658203124 0.41849999999999976 L 4.444399658203124 0.41849999999999976 Q 4.463899658203124 0.41849999999999976 4.481899658203124 0.4117499999999997 Q 4.499899658203124 0.4049999999999997 4.511899658203124 0.3869999999999997 Q 4.523899658203124 0.36899999999999966 4.523899658203124 0.33599999999999974 Q 4.523899658203124 0.3059999999999997 4.514149658203124 0.28874999999999973 Q 4.504399658203123 0.27149999999999974 4.488649658203124 0.26324999999999976 Q 4.472899658203124 0.25499999999999967 4.453399658203124 0.25499999999999967 L 4.244899658203124 0.25499999999999967 M 5.7614033203125 0.8159999999999997 L 5.7614033203125 1.0709999999999997 L 5.002403320312499 1.0709999999999997 L 5.002403320312499 0.005999999999999783 L 5.747903320312499 0.005999999999999783 L 5.747903320312499 0.2609999999999997 L 5.2949033203125 0.2609999999999997 L 5.2949033203125 0.4109999999999997 L 5.681903320312499 0.4109999999999997 L 5.681903320312499 0.6479999999999997 L 5.2949033203125 0.6479999999999997 L 5.2949033203125 0.8159999999999997 L 5.7614033203125 0.8159999999999997 M 5.912880615234374 1.0709999999999997 L 5.912880615234374 0.005999999999999783 L 6.2053806152343745 0.005999999999999783 L 6.2053806152343745 0.8159999999999997 L 6.688380615234374 0.8159999999999997 L 6.688380615234374 1.0709999999999997 L 5.912880615234374 1.0709999999999997 M 6.805413574218749 1.0709999999999997 L 6.805413574218749 0.005999999999999783 L 7.097913574218749 0.005999999999999783 L 7.097913574218749 0.8159999999999997 L 7.580913574218749 0.8159999999999997 L 7.580913574218749 1.0709999999999997 L 6.805413574218749 1.0709999999999997 M 7.625988281249999 0.5294999999999997 Q 7.625988281249999 0.4319999999999997 7.6627382812499985 0.3382499999999997 Q 7.699488281249998 0.24449999999999972 7.769988281249998 0.1679999999999997 Q 7.840488281249998 0.09149999999999969 7.941738281249998 0.045749999999999735 Q 8.042988281249999 -2.220446049250313e-16 8.170488281249998 -2.220446049250313e-16 Q 8.323488281249999 -2.220446049250313e-16 8.437488281249998 0.06374999999999975 Q 8.551488281249998 0.12749999999999972 8.606988281249999 0.2324999999999997 L 8.38348828125 0.39149999999999974 Q 8.363988281249998 0.33899999999999975 8.327238281249999 0.31049999999999967 Q 8.29048828125 0.2819999999999997 8.24773828125 0.2707499999999997 Q 8.204988281249998 0.25949999999999973 8.164488281249998 0.25949999999999973 Q 8.101488281249999 0.25949999999999973 8.05573828125 0.28424999999999967 Q 8.00998828125 0.3089999999999997 7.980738281249998 0.3494999999999997 Q 7.951488281249999 0.3899999999999997 7.937238281249998 0.43949999999999967 Q 7.9229882812499985 0.48899999999999977 7.9229882812499985 0.5384999999999998 Q 7.9229882812499985 0.5939999999999996 7.939488281249998 0.6449999999999998 Q 7.955988281249999 0.6959999999999997 7.987488281249998 0.7357499999999997 Q 8.018988281249998 0.7754999999999997 8.064738281249998 0.7979999999999997 Q 8.110488281249998 0.8204999999999998 8.167488281249998 0.8204999999999998 Q 8.207988281249998 0.8204999999999998 8.249988281249998 0.8077499999999997 Q 8.29198828125 0.7949999999999997 8.326488281249999 0.7664999999999997 Q 8.360988281249998 0.7379999999999998 8.378988281249999 0.6899999999999997 L 8.617488281249999 0.8324999999999997 Q 8.585988281249998 0.9104999999999998 8.512488281249999 0.9659999999999997 Q 8.438988281249998 1.0214999999999996 8.345988281249998 1.0507499999999996 Q 8.252988281249998 1.0799999999999996 8.161488281249998 1.0799999999999996 Q 8.042988281249999 1.0799999999999996 7.9447382812499985 1.0327499999999998 Q 7.846488281249998 0.9854999999999997 7.775238281249998 0.9067499999999997 Q 7.703988281249998 0.8279999999999997 7.6649882812499985 0.7297499999999997 Q 7.625988281249999 0.6314999999999997 7.625988281249999 0.5294999999999997 M 9.199477294921873 1.0799999999999996 Q 9.077977294921872 1.0799999999999996 8.978977294921874 1.0342499999999997 Q 8.879977294921874 0.9884999999999997 8.808727294921873 0.9112499999999997 Q 8.737477294921874 0.8339999999999997 8.699227294921872 0.7372499999999997 Q 8.660977294921873 0.6404999999999997 8.660977294921873 0.5369999999999997 Q 8.660977294921873 0.43049999999999977 8.701477294921872 0.3344999999999997 Q 8.741977294921874 0.2384999999999997 8.814727294921873 0.16274999999999973 Q 8.887477294921872 0.08699999999999974 8.987227294921873 0.04349999999999965 Q 9.086977294921873 -2.220446049250313e-16 9.205477294921874 -2.220446049250313e-16 Q 9.326977294921873 -2.220446049250313e-16 9.425977294921873 0.045749999999999735 Q 9.524977294921873 0.09149999999999969 9.595477294921873 0.16949999999999976 Q 9.665977294921873 0.24749999999999972 9.704227294921873 0.3442499999999997 Q 9.742477294921873 0.4409999999999997 9.742477294921873 0.5429999999999997 Q 9.742477294921873 0.6479999999999997 9.702727294921873 0.7439999999999998 Q 9.662977294921873 0.8399999999999997 9.590227294921874 0.9157499999999997 Q 9.517477294921873 0.9914999999999997 9.418477294921873 1.0357499999999997 Q 9.319477294921873 1.0799999999999996 9.199477294921873 1.0799999999999996 M 8.957977294921873 0.5399999999999997 Q 8.957977294921873 0.5939999999999996 8.972977294921874 0.6442499999999998 Q 8.987977294921873 0.6944999999999997 9.017977294921874 0.7342499999999997 Q 9.047977294921873 0.7739999999999998 9.093727294921873 0.7972499999999998 Q 9.139477294921873 0.8204999999999998 9.202477294921874 0.8204999999999998 Q 9.265477294921872 0.8204999999999998 9.311977294921872 0.7964999999999998 Q 9.358477294921872 0.7724999999999997 9.387727294921874 0.7312499999999997 Q 9.416977294921873 0.6899999999999997 9.431227294921873 0.6397499999999997 Q 9.445477294921874 0.5894999999999997 9.445477294921874 0.5369999999999997 Q 9.445477294921874 0.48299999999999976 9.430477294921873 0.43349999999999966 Q 9.415477294921873 0.3839999999999997 9.385477294921873 0.3442499999999997 Q 9.355477294921872 0.30449999999999966 9.308977294921874 0.2819999999999997 Q 9.262477294921872 0.25949999999999973 9.200977294921874 0.25949999999999973 Q 9.137977294921873 0.25949999999999973 9.092227294921873 0.28349999999999975 Q 9.046477294921873 0.30749999999999966 9.016477294921874 0.3472499999999997 Q 8.986477294921873 0.3869999999999997 8.972227294921874 0.4372499999999997 Q 8.957977294921873 0.4874999999999997 8.957977294921873 0.5399999999999997" fill="#f9f9f9" fill-rule="nonzero"></path></g><g><path d=" M 0.48675 1.4291625000000001 L 0.48675 1.9616625 L 0.435 1.9616625 L 0.435 1.7126625 L 0.11925000000000001 1.7126625 L 0.11925000000000001 1.9616625 L 0.06675 1.9616625 L 0.06675 1.4291625000000001 L 0.11925000000000001 1.4291625000000001 L 0.11925000000000001 1.6661625 L 0.435 1.6661625 L 0.435 1.4291625000000001 L 0.48675 1.4291625000000001 M 0.8444820556640626 1.9654125 Q 0.7814820556640626 1.9654125 0.7379820556640626 1.9429125 Q 0.6944820556640625 1.9204125 0.6689820556640625 1.8825375000000002 Q 0.6434820556640626 1.8446625 0.6318570556640626 1.7966625 Q 0.6202320556640626 1.7486625 0.6202320556640626 1.6976625 L 0.6202320556640626 1.4291625000000001 L 0.6719820556640625 1.4291625000000001 L 0.6719820556640625 1.6976625 Q 0.6719820556640625 1.7389125 0.6806070556640625 1.7786625 Q 0.6892320556640625 1.8184125 0.7087320556640626 1.8499125 Q 0.7282320556640626 1.8814125000000002 0.7612320556640626 1.8997875000000002 Q 0.7942320556640625 1.9181625 0.8437320556640626 1.9181625 Q 0.8947320556640626 1.9181625 0.9281070556640626 1.8990375000000002 Q 0.9614820556640626 1.8799125 0.9806070556640626 1.8484125 Q 0.9997320556640625 1.8169125000000002 1.0079820556640626 1.7775375 Q 1.0162320556640625 1.7381625 1.0162320556640625 1.6976625 L 1.0162320556640625 1.4291625000000001 L 1.0687320556640625 1.4291625000000001 L 1.0687320556640625 1.6976625 Q 1.0687320556640625 1.7509125 1.0567320556640625 1.7996625000000002 Q 1.0447320556640625 1.8484125 1.0181070556640626 1.8851625 Q 0.9914820556640626 1.9219125000000001 0.9487320556640626 1.9436625 Q 0.9059820556640625 1.9654125 0.8444820556640626 1.9654125 M 1.6732357177734376 1.9616625 L 1.6732357177734376 1.5281625 L 1.4804857177734376 1.8649125 L 1.4474857177734377 1.8649125 L 1.2539857177734377 1.5281625 L 1.2539857177734377 1.9616625 L 1.2014857177734377 1.9616625 L 1.2014857177734377 1.4291625000000001 L 1.2554857177734375 1.4291625000000001 L 1.4632357177734376 1.7936625000000002 L 1.6724857177734376 1.4291625000000001 L 1.7257357177734376 1.4291625000000001 L 1.7257357177734376 1.9616625 L 1.6732357177734376 1.9616625 M 2.0317463378906253 1.4291625000000001 L 2.075996337890625 1.4291625000000001 L 2.297246337890625 1.9616625 L 2.2417463378906253 1.9616625 L 2.1727463378906253 1.7951625 L 1.9334963378906251 1.7951625 L 1.8652463378906252 1.9616625 L 1.808996337890625 1.9616625 L 2.0317463378906253 1.4291625000000001 M 2.1607463378906253 1.7539125 L 2.0534963378906252 1.4906625 L 1.9447463378906251 1.7539125 L 2.1607463378906253 1.7539125 M 2.4337653808593753 1.5259125 L 2.4337653808593753 1.9616625 L 2.381265380859375 1.9616625 L 2.381265380859375 1.4291625000000001 L 2.4247653808593754 1.4291625000000001 L 2.7742653808593754 1.8731625 L 2.7742653808593754 1.4299125 L 2.826765380859375 1.4299125 L 2.826765380859375 1.9616625 L 2.778015380859375 1.9616625 L 2.4337653808593753 1.5259125 M 3.1664985351562502 1.9616625 L 3.1664985351562502 1.4291625000000001 L 3.3914985351562503 1.4291625000000001 Q 3.4259985351562503 1.4291625000000001 3.4544985351562505 1.4434125 Q 3.4829985351562502 1.4576625 3.50437353515625 1.4820375000000001 Q 3.5257485351562505 1.5064125000000002 3.5373735351562505 1.5360375 Q 3.5489985351562505 1.5656625000000002 3.5489985351562505 1.5964125 Q 3.5489985351562505 1.6346625000000001 3.5343735351562504 1.6684125 Q 3.5197485351562503 1.7021625 3.4931235351562506 1.7254125 Q 3.4664985351562505 1.7486625 3.4304985351562505 1.7561625 L 3.5609985351562505 1.9616625 L 3.5017485351562505 1.9616625 L 3.37649853515625 1.7651625000000002 L 3.2189985351562505 1.7651625000000002 L 3.2189985351562505 1.9616625 L 3.1664985351562502 1.9616625 M 3.2189985351562505 1.7186625000000002 L 3.3929985351562504 1.7186625000000002 Q 3.4244985351562502 1.7186625000000002 3.4477485351562502 1.7014125 Q 3.4709985351562502 1.6841625 3.4837485351562503 1.6560375 Q 3.4964985351562503 1.6279125 3.4964985351562503 1.5964125 Q 3.4964985351562503 1.5641625000000001 3.48187353515625 1.5367875 Q 3.4672485351562505 1.5094125 3.4428735351562505 1.4925375 Q 3.4184985351562505 1.4756625 3.38849853515625 1.4756625 L 3.2189985351562505 1.4756625 L 3.2189985351562505 1.7186625000000002 M 4.021509887695313 1.9151625 L 4.021509887695313 1.9616625 L 3.6637598876953126 1.9616625 L 3.6637598876953126 1.4291625000000001 L 4.014759887695313 1.4291625000000001 L 4.014759887695313 1.4756625 L 3.716259887695313 1.4756625 L 3.716259887695313 1.6676625 L 3.976509887695313 1.6676625 L 3.976509887695313 1.7119125000000002 L 3.716259887695313 1.7119125000000002 L 3.716259887695313 1.9151625 L 4.021509887695313 1.9151625 M 4.436245239257813 1.5289125000000001 Q 4.424995239257813 1.5161625 4.409995239257813 1.5060375000000001 Q 4.394995239257813 1.4959125000000002 4.376245239257813 1.4884125000000001 Q 4.357495239257813 1.4809125 4.336120239257813 1.4764125000000001 Q 4.314745239257813 1.4719125000000002 4.290745239257813 1.4719125000000002 Q 4.220995239257813 1.4719125000000002 4.188370239257813 1.4985375 Q 4.155745239257813 1.5251625 4.155745239257813 1.5709125000000002 Q 4.155745239257813 1.6024125 4.171120239257813 1.6204125 Q 4.186495239257813 1.6384125 4.219495239257813 1.6496625 Q 4.252495239257813 1.6609125 4.303495239257813 1.6729125 Q 4.360495239257813 1.6849125 4.401745239257813 1.7014125 Q 4.442995239257813 1.7179125000000002 4.465495239257813 1.7460375000000001 Q 4.487995239257813 1.7741625 4.487995239257813 1.8221625000000001 Q 4.487995239257813 1.8589125000000002 4.473745239257813 1.8859125 Q 4.459495239257813 1.9129125 4.433995239257813 1.9309125 Q 4.408495239257813 1.9489125 4.373245239257813 1.9575375000000002 Q 4.337995239257813 1.9661625 4.295995239257813 1.9661625 Q 4.254745239257813 1.9661625 4.216870239257813 1.9575375000000002 Q 4.178995239257813 1.9489125 4.145245239257813 1.9320375 Q 4.111495239257813 1.9151625 4.082245239257813 1.8889125 L 4.108495239257813 1.8461625000000002 Q 4.122745239257813 1.8611625 4.142620239257813 1.8742875 Q 4.162495239257813 1.8874125000000002 4.1868702392578125 1.8979125000000001 Q 4.211245239257813 1.9084125 4.239370239257813 1.9140375 Q 4.267495239257813 1.9196625 4.297495239257813 1.9196625 Q 4.361245239257813 1.9196625 4.396870239257813 1.8964125 Q 4.432495239257813 1.8731625 4.432495239257813 1.8274125 Q 4.432495239257813 1.7944125 4.414495239257813 1.7745375 Q 4.396495239257813 1.7546625 4.360495239257813 1.7419125000000002 Q 4.324495239257813 1.7291625000000002 4.271995239257813 1.7171625000000001 Q 4.216495239257813 1.7044125 4.178245239257813 1.6886625 Q 4.139995239257813 1.6729125 4.120870239257813 1.6470375000000002 Q 4.101745239257813 1.6211625 4.101745239257813 1.5784125 Q 4.101745239257813 1.5289125000000001 4.126120239257813 1.4947875000000002 Q 4.150495239257813 1.4606625000000002 4.193245239257813 1.4430375 Q 4.235995239257813 1.4254125000000002 4.291495239257813 1.4254125000000002 Q 4.326745239257813 1.4254125000000002 4.357120239257813 1.4325375 Q 4.387495239257813 1.4396625 4.413370239257813 1.4531625 Q 4.439245239257813 1.4666625 4.461745239257813 1.4869125 L 4.436245239257813 1.5289125000000001 M 4.802241210937501 1.9654125 Q 4.7459912109375 1.9654125 4.7002412109375005 1.9429125 Q 4.6544912109375005 1.9204125 4.621491210937501 1.8817875000000002 Q 4.588491210937501 1.8431625 4.570491210937501 1.7947875 Q 4.552491210937501 1.7464125000000001 4.552491210937501 1.6954125000000002 Q 4.552491210937501 1.6421625 4.571241210937501 1.5937875000000001 Q 4.589991210937501 1.5454125 4.624116210937501 1.5075375000000002 Q 4.658241210937501 1.4696625 4.703991210937501 1.4475375000000001 Q 4.749741210937501 1.4254125000000002 4.802991210937501 1.4254125000000002 Q 4.859241210937501 1.4254125000000002 4.904991210937501 1.4486625000000002 Q 4.950741210937501 1.4719125000000002 4.9833662109375005 1.5109125 Q 5.015991210937501 1.5499125 5.033991210937501 1.5979125 Q 5.0519912109375005 1.6459125000000001 5.0519912109375005 1.6961625 Q 5.0519912109375005 1.7494125 5.033241210937501 1.7977875 Q 5.014491210937501 1.8461625000000002 4.9807412109375 1.8840375 Q 4.946991210937501 1.9219125000000001 4.901241210937501 1.9436625 Q 4.855491210937501 1.9654125 4.802241210937501 1.9654125 M 4.6049912109375 1.6954125000000002 Q 4.6049912109375 1.7389125 4.619241210937501 1.7790375 Q 4.633491210937501 1.8191625 4.659741210937501 1.8502875 Q 4.685991210937501 1.8814125000000002 4.7223662109375 1.8997875000000002 Q 4.758741210937501 1.9181625 4.802241210937501 1.9181625 Q 4.847991210937501 1.9181625 4.8843662109375 1.8990375000000002 Q 4.920741210937501 1.8799125 4.946616210937501 1.8480375 Q 4.972491210937501 1.8161625000000001 4.985991210937501 1.7764125000000002 Q 4.999491210937501 1.7366625 4.999491210937501 1.6954125000000002 Q 4.999491210937501 1.6519125000000001 4.985241210937501 1.6121625000000002 Q 4.970991210937501 1.5724125 4.944366210937501 1.5409125000000001 Q 4.917741210937501 1.5094125 4.881741210937501 1.4914125 Q 4.845741210937501 1.4734125 4.802241210937501 1.4734125 Q 4.757241210937501 1.4734125 4.7208662109375 1.4921625 Q 4.684491210937501 1.5109125 4.658616210937501 1.5427875000000002 Q 4.632741210937501 1.5746625 4.618866210937501 1.6144125 Q 4.6049912109375 1.6541625 4.6049912109375 1.6954125000000002 M 5.375223632812501 1.9654125 Q 5.312223632812501 1.9654125 5.268723632812501 1.9429125 Q 5.225223632812501 1.9204125 5.199723632812501 1.8825375000000002 Q 5.174223632812501 1.8446625 5.162598632812501 1.7966625 Q 5.150973632812501 1.7486625 5.150973632812501 1.6976625 L 5.150973632812501 1.4291625000000001 L 5.202723632812501 1.4291625000000001 L 5.202723632812501 1.6976625 Q 5.202723632812501 1.7389125 5.211348632812501 1.7786625 Q 5.2199736328125015 1.8184125 5.239473632812501 1.8499125 Q 5.258973632812501 1.8814125000000002 5.291973632812501 1.8997875000000002 Q 5.324973632812501 1.9181625 5.374473632812501 1.9181625 Q 5.425473632812501 1.9181625 5.458848632812501 1.8990375000000002 Q 5.492223632812501 1.8799125 5.511348632812501 1.8484125 Q 5.530473632812501 1.8169125000000002 5.538723632812501 1.7775375 Q 5.546973632812501 1.7381625 5.546973632812501 1.6976625 L 5.546973632812501 1.4291625000000001 L 5.599473632812501 1.4291625000000001 L 5.599473632812501 1.6976625 Q 5.599473632812501 1.7509125 5.587473632812501 1.7996625000000002 Q 5.575473632812501 1.8484125 5.548848632812501 1.8851625 Q 5.522223632812501 1.9219125000000001 5.479473632812501 1.9436625 Q 5.436723632812501 1.9654125 5.375223632812501 1.9654125 M 5.732227294921876 1.9616625 L 5.732227294921876 1.4291625000000001 L 5.957227294921877 1.4291625000000001 Q 5.991727294921876 1.4291625000000001 6.0202272949218765 1.4434125 Q 6.048727294921877 1.4576625 6.070102294921877 1.4820375000000001 Q 6.0914772949218765 1.5064125000000002 6.103102294921876 1.5360375 Q 6.1147272949218765 1.5656625000000002 6.1147272949218765 1.5964125 Q 6.1147272949218765 1.6346625000000001 6.100102294921876 1.6684125 Q 6.085477294921876 1.7021625 6.058852294921876 1.7254125 Q 6.032227294921876 1.7486625 5.9962272949218764 1.7561625 L 6.126727294921876 1.9616625 L 6.0674772949218765 1.9616625 L 5.942227294921876 1.7651625000000002 L 5.784727294921876 1.7651625000000002 L 5.784727294921876 1.9616625 L 5.732227294921876 1.9616625 M 5.784727294921876 1.7186625000000002 L 5.958727294921877 1.7186625000000002 Q 5.990227294921876 1.7186625000000002 6.013477294921876 1.7014125 Q 6.036727294921876 1.6841625 6.049477294921877 1.6560375 Q 6.062227294921876 1.6279125 6.062227294921876 1.5964125 Q 6.062227294921876 1.5641625000000001 6.047602294921877 1.5367875 Q 6.032977294921876 1.5094125 6.008602294921876 1.4925375 Q 5.984227294921876 1.4756625 5.954227294921877 1.4756625 L 5.784727294921876 1.4756625 L 5.784727294921876 1.7186625000000002 M 6.194238647460939 1.6916625 Q 6.194238647460939 1.6429125 6.211113647460939 1.5960375 Q 6.227988647460939 1.5491625 6.260238647460939 1.5105375 Q 6.292488647460939 1.4719125000000002 6.339738647460939 1.4490375000000002 Q 6.386988647460939 1.4261625000000002 6.446988647460939 1.4261625000000002 Q 6.518238647460939 1.4261625000000002 6.568863647460939 1.4587875000000001 Q 6.619488647460939 1.4914125 6.64348864746094 1.5424125000000002 L 6.602238647460939 1.5679125 Q 6.584988647460939 1.5326625 6.558738647460939 1.5120375000000001 Q 6.532488647460939 1.4914125 6.50286364746094 1.4824125000000001 Q 6.473238647460939 1.4734125 6.443988647460939 1.4734125 Q 6.395988647460939 1.4734125 6.3592386474609395 1.4925375 Q 6.322488647460939 1.5116625000000001 6.297363647460939 1.5435375 Q 6.272238647460939 1.5754125 6.259488647460939 1.6147875 Q 6.246738647460939 1.6541625 6.246738647460939 1.6946625000000002 Q 6.246738647460939 1.7389125 6.261738647460939 1.7794125 Q 6.276738647460939 1.8199125 6.303738647460939 1.8510375000000001 Q 6.330738647460939 1.8821625000000002 6.367113647460939 1.9005375 Q 6.403488647460939 1.9189125 6.446238647460939 1.9189125 Q 6.4762386474609395 1.9189125 6.507738647460939 1.9084125 Q 6.539238647460939 1.8979125000000001 6.566613647460939 1.8761625000000002 Q 6.5939886474609395 1.8544125 6.610488647460939 1.8199125 L 6.653988647460939 1.8424125 Q 6.637488647460939 1.8821625000000002 6.602988647460939 1.9099125000000001 Q 6.568488647460939 1.9376625 6.526113647460939 1.9519125000000002 Q 6.483738647460939 1.9661625 6.443238647460939 1.9661625 Q 6.388488647460939 1.9661625 6.342738647460939 1.9425375 Q 6.296988647460939 1.9189125 6.263613647460939 1.8795375 Q 6.230238647460939 1.8401625000000001 6.212238647460939 1.7910375 Q 6.194238647460939 1.7419125000000002 6.194238647460939 1.6916625 M 7.109219238281252 1.9151625 L 7.109219238281252 1.9616625 L 6.751469238281252 1.9616625 L 6.751469238281252 1.4291625000000001 L 7.102469238281252 1.4291625000000001 L 7.102469238281252 1.4756625 L 6.803969238281252 1.4756625 L 6.803969238281252 1.6676625 L 7.064219238281252 1.6676625 L 7.064219238281252 1.7119125000000002 L 6.803969238281252 1.7119125000000002 L 6.803969238281252 1.9151625 L 7.109219238281252 1.9151625 M 7.775979492187503 1.9616625 L 7.510479492187502 1.6819125000000001 Q 7.478229492187502 1.6474125000000002 7.458729492187502 1.6230375000000001 Q 7.439229492187502 1.5986625 7.430979492187502 1.5787875 Q 7.422729492187503 1.5589125000000001 7.422729492187503 1.5394125 Q 7.422729492187503 1.5064125000000002 7.4403544921875024 1.4801625 Q 7.457979492187502 1.4539125 7.4883544921875025 1.4381625000000002 Q 7.518729492187503 1.4224125 7.556229492187502 1.4224125 Q 7.591479492187503 1.4224125 7.619604492187502 1.4355375000000001 Q 7.647729492187502 1.4486625000000002 7.664229492187502 1.4722875000000002 Q 7.680729492187503 1.4959125000000002 7.680729492187503 1.5274125 Q 7.680729492187503 1.5611625 7.661604492187503 1.5877875000000001 Q 7.642479492187502 1.6144125 7.612104492187503 1.6372875 Q 7.5817294921875025 1.6601625000000002 7.544979492187503 1.6834125000000002 Q 7.514229492187503 1.7044125 7.4883544921875025 1.7257875 Q 7.462479492187502 1.7471625000000002 7.447479492187503 1.7711625 Q 7.432479492187502 1.7951625 7.432479492187502 1.8259125 Q 7.432479492187502 1.8589125000000002 7.451229492187503 1.8817875000000002 Q 7.469979492187503 1.9046625000000001 7.498854492187503 1.9162875000000001 Q 7.527729492187502 1.9279125000000001 7.5584794921875025 1.9279125000000001 Q 7.598979492187502 1.9279125000000001 7.633104492187503 1.9095375 Q 7.667229492187502 1.8911625 7.692729492187502 1.8585375000000002 Q 7.718229492187502 1.8259125 7.732104492187503 1.7839125 Q 7.7459794921875025 1.7419125000000002 7.7459794921875025 1.6946625000000002 L 7.789479492187502 1.6946625000000002 Q 7.789479492187502 1.7516625000000001 7.771479492187503 1.8015375 Q 7.753479492187503 1.8514125000000001 7.7216044921875024 1.8889125 Q 7.689729492187502 1.9264125 7.646604492187502 1.9477875 Q 7.603479492187502 1.9691625000000001 7.553229492187502 1.9691625000000001 Q 7.506729492187502 1.9691625000000001 7.467729492187503 1.9507875000000001 Q 7.428729492187503 1.9324125 7.405854492187503 1.9001625 Q 7.382979492187502 1.8679125 7.382979492187502 1.8244125 Q 7.382979492187502 1.7839125 7.402104492187503 1.7535375000000002 Q 7.421229492187503 1.7231625000000002 7.451604492187503 1.6987875000000001 Q 7.481979492187502 1.6744125 7.515729492187503 1.6526625000000001 Q 7.550229492187502 1.6301625 7.576854492187502 1.6110375000000001 Q 7.603479492187502 1.5919125 7.618479492187502 1.5720375 Q 7.633479492187503 1.5521625000000001 7.633479492187503 1.5289125000000001 Q 7.633479492187503 1.4996625000000001 7.611729492187503 1.4809125 Q 7.589979492187503 1.4621625 7.556229492187502 1.4621625 Q 7.531479492187502 1.4621625 7.5119794921875025 1.4726625000000002 Q 7.492479492187503 1.4831625000000002 7.481229492187502 1.5004125000000001 Q 7.469979492187503 1.5176625000000001 7.469979492187503 1.5379125 Q 7.469979492187503 1.5506625 7.475979492187503 1.5645375000000001 Q 7.481979492187502 1.5784125 7.499229492187503 1.5990375000000001 Q 7.516479492187503 1.6196625 7.548729492187502 1.6534125 L 7.843479492187503 1.9616625 L 7.775979492187503 1.9616625 M 8.085727294921877 1.6916625 Q 8.085727294921877 1.6429125 8.102602294921878 1.5960375 Q 8.119477294921879 1.5491625 8.151727294921878 1.5105375 Q 8.183977294921878 1.4719125000000002 8.231227294921878 1.4490375000000002 Q 8.278477294921878 1.4261625000000002 8.338477294921878 1.4261625000000002 Q 8.409727294921877 1.4261625000000002 8.460352294921877 1.4587875000000001 Q 8.510977294921878 1.4914125 8.534977294921879 1.5424125000000002 L 8.493727294921879 1.5679125 Q 8.476477294921878 1.5326625 8.450227294921879 1.5120375000000001 Q 8.423977294921878 1.4914125 8.394352294921879 1.4824125000000001 Q 8.364727294921877 1.4734125 8.335477294921878 1.4734125 Q 8.287477294921878 1.4734125 8.250727294921878 1.4925375 Q 8.213977294921879 1.5116625000000001 8.188852294921878 1.5435375 Q 8.163727294921879 1.5754125 8.150977294921878 1.6147875 Q 8.138227294921878 1.6541625 8.138227294921878 1.6946625000000002 Q 8.138227294921878 1.7389125 8.153227294921878 1.7794125 Q 8.168227294921879 1.8199125 8.195227294921878 1.8510375000000001 Q 8.222227294921877 1.8821625000000002 8.258602294921879 1.9005375 Q 8.294977294921878 1.9189125 8.337727294921878 1.9189125 Q 8.367727294921878 1.9189125 8.399227294921879 1.9084125 Q 8.430727294921878 1.8979125000000001 8.458102294921877 1.8761625000000002 Q 8.485477294921878 1.8544125 8.501977294921877 1.8199125 L 8.545477294921879 1.8424125 Q 8.528977294921878 1.8821625000000002 8.494477294921879 1.9099125000000001 Q 8.459977294921877 1.9376625 8.417602294921878 1.9519125000000002 Q 8.375227294921878 1.9661625 8.334727294921878 1.9661625 Q 8.279977294921878 1.9661625 8.234227294921878 1.9425375 Q 8.188477294921878 1.9189125 8.155102294921878 1.8795375 Q 8.121727294921879 1.8401625000000001 8.103727294921878 1.7910375 Q 8.085727294921877 1.7419125000000002 8.085727294921877 1.6916625 M 8.851461181640628 1.9654125 Q 8.795211181640628 1.9654125 8.749461181640628 1.9429125 Q 8.703711181640628 1.9204125 8.670711181640629 1.8817875000000002 Q 8.63771118164063 1.8431625 8.619711181640628 1.7947875 Q 8.601711181640628 1.7464125000000001 8.601711181640628 1.6954125000000002 Q 8.601711181640628 1.6421625 8.620461181640628 1.5937875000000001 Q 8.63921118164063 1.5454125 8.673336181640629 1.5075375000000002 Q 8.707461181640628 1.4696625 8.753211181640628 1.4475375000000001 Q 8.798961181640628 1.4254125000000002 8.852211181640628 1.4254125000000002 Q 8.908461181640629 1.4254125000000002 8.954211181640629 1.4486625000000002 Q 8.999961181640629 1.4719125000000002 9.032586181640628 1.5109125 Q 9.065211181640628 1.5499125 9.083211181640628 1.5979125 Q 9.101211181640629 1.6459125000000001 9.101211181640629 1.6961625 Q 9.101211181640629 1.7494125 9.082461181640628 1.7977875 Q 9.063711181640628 1.8461625000000002 9.029961181640628 1.8840375 Q 8.996211181640628 1.9219125000000001 8.950461181640629 1.9436625 Q 8.904711181640629 1.9654125 8.851461181640628 1.9654125 M 8.654211181640628 1.6954125000000002 Q 8.654211181640628 1.7389125 8.668461181640629 1.7790375 Q 8.682711181640629 1.8191625 8.708961181640628 1.8502875 Q 8.735211181640627 1.8814125000000002 8.771586181640629 1.8997875000000002 Q 8.807961181640628 1.9181625 8.851461181640628 1.9181625 Q 8.897211181640628 1.9181625 8.933586181640628 1.8990375000000002 Q 8.969961181640628 1.8799125 8.995836181640628 1.8480375 Q 9.021711181640628 1.8161625000000001 9.035211181640628 1.7764125000000002 Q 9.048711181640629 1.7366625 9.048711181640629 1.6954125000000002 Q 9.048711181640629 1.6519125000000001 9.034461181640628 1.6121625000000002 Q 9.020211181640628 1.5724125 8.993586181640628 1.5409125000000001 Q 8.96696118164063 1.5094125 8.930961181640628 1.4914125 Q 8.894961181640628 1.4734125 8.851461181640628 1.4734125 Q 8.806461181640628 1.4734125 8.770086181640629 1.4921625 Q 8.73371118164063 1.5109125 8.707836181640628 1.5427875000000002 Q 8.681961181640629 1.5746625 8.668086181640628 1.6144125 Q 8.654211181640628 1.6541625 8.654211181640628 1.6954125000000002 M 9.260193603515628 1.5259125 L 9.260193603515628 1.9616625 L 9.20769360351563 1.9616625 L 9.20769360351563 1.4291625000000001 L 9.25119360351563 1.4291625000000001 L 9.600693603515628 1.8731625 L 9.600693603515628 1.4299125 L 9.653193603515628 1.4299125 L 9.653193603515628 1.9616625 L 9.604443603515628 1.9616625 L 9.260193603515628 1.5259125 M 10.105423095703129 1.5289125000000001 Q 10.094173095703129 1.5161625 10.07917309570313 1.5060375000000001 Q 10.06417309570313 1.4959125000000002 10.045423095703129 1.4884125000000001 Q 10.02667309570313 1.4809125 10.005298095703129 1.4764125000000001 Q 9.98392309570313 1.4719125000000002 9.959923095703129 1.4719125000000002 Q 9.89017309570313 1.4719125000000002 9.857548095703129 1.4985375 Q 9.824923095703129 1.5251625 9.824923095703129 1.5709125000000002 Q 9.824923095703129 1.6024125 9.84029809570313 1.6204125 Q 9.855673095703128 1.6384125 9.88867309570313 1.6496625 Q 9.92167309570313 1.6609125 9.97267309570313 1.6729125 Q 10.02967309570313 1.6849125 10.07092309570313 1.7014125 Q 10.11217309570313 1.7179125000000002 10.134673095703128 1.7460375000000001 Q 10.15717309570313 1.7741625 10.15717309570313 1.8221625000000001 Q 10.15717309570313 1.8589125000000002 10.142923095703129 1.8859125 Q 10.128673095703128 1.9129125 10.103173095703129 1.9309125 Q 10.07767309570313 1.9489125 10.042423095703128 1.9575375000000002 Q 10.007173095703129 1.9661625 9.965173095703129 1.9661625 Q 9.92392309570313 1.9661625 9.88604809570313 1.9575375000000002 Q 9.848173095703128 1.9489125 9.814423095703129 1.9320375 Q 9.78067309570313 1.9151625 9.751423095703128 1.8889125 L 9.777673095703129 1.8461625000000002 Q 9.79192309570313 1.8611625 9.811798095703129 1.8742875 Q 9.83167309570313 1.8874125000000002 9.856048095703128 1.8979125000000001 Q 9.88042309570313 1.9084125 9.908548095703129 1.9140375 Q 9.93667309570313 1.9196625 9.966673095703129 1.9196625 Q 10.03042309570313 1.9196625 10.06604809570313 1.8964125 Q 10.101673095703129 1.8731625 10.101673095703129 1.8274125 Q 10.101673095703129 1.7944125 10.083673095703128 1.7745375 Q 10.06567309570313 1.7546625 10.02967309570313 1.7419125000000002 Q 9.993673095703128 1.7291625000000002 9.941173095703128 1.7171625000000001 Q 9.88567309570313 1.7044125 9.847423095703128 1.6886625 Q 9.809173095703128 1.6729125 9.79004809570313 1.6470375000000002 Q 9.770923095703129 1.6211625 9.770923095703129 1.5784125 Q 9.770923095703129 1.5289125000000001 9.79529809570313 1.4947875000000002 Q 9.819673095703129 1.4606625000000002 9.862423095703129 1.4430375 Q 9.905173095703129 1.4254125000000002 9.960673095703129 1.4254125000000002 Q 9.995923095703128 1.4254125000000002 10.02629809570313 1.4325375 Q 10.056673095703129 1.4396625 10.082548095703128 1.4531625 Q 10.10842309570313 1.4666625 10.130923095703128 1.4869125 L 10.105423095703129 1.5289125000000001 M 10.473669067382817 1.9654125 Q 10.410669067382816 1.9654125 10.367169067382816 1.9429125 Q 10.323669067382816 1.9204125 10.298169067382817 1.8825375000000002 Q 10.272669067382816 1.8446625 10.261044067382816 1.7966625 Q 10.249419067382817 1.7486625 10.249419067382817 1.6976625 L 10.249419067382817 1.4291625000000001 L 10.301169067382817 1.4291625000000001 L 10.301169067382817 1.6976625 Q 10.301169067382817 1.7389125 10.309794067382816 1.7786625 Q 10.318419067382816 1.8184125 10.337919067382817 1.8499125 Q 10.357419067382816 1.8814125000000002 10.390419067382817 1.8997875000000002 Q 10.423419067382817 1.9181625 10.472919067382817 1.9181625 Q 10.523919067382817 1.9181625 10.557294067382816 1.8990375000000002 Q 10.590669067382816 1.8799125 10.609794067382817 1.8484125 Q 10.628919067382817 1.8169125000000002 10.637169067382816 1.7775375 Q 10.645419067382816 1.7381625 10.645419067382816 1.6976625 L 10.645419067382816 1.4291625000000001 L 10.697919067382816 1.4291625000000001 L 10.697919067382816 1.6976625 Q 10.697919067382816 1.7509125 10.685919067382816 1.7996625000000002 Q 10.673919067382817 1.8484125 10.647294067382816 1.8851625 Q 10.620669067382817 1.9219125000000001 10.577919067382817 1.9436625 Q 10.535169067382817 1.9654125 10.473669067382817 1.9654125 M 10.830672729492193 1.9616625 L 10.830672729492193 1.4291625000000001 L 10.883172729492191 1.4291625000000001 L 10.883172729492191 1.9151625 L 11.190672729492192 1.9151625 L 11.190672729492192 1.9616625 L 10.830672729492193 1.9616625 M 11.56942895507813 1.4756625 L 11.37967895507813 1.4756625 L 11.37967895507813 1.9616625 L 11.32717895507813 1.9616625 L 11.32717895507813 1.4756625 L 11.13742895507813 1.4756625 L 11.13742895507813 1.4291625000000001 L 11.56942895507813 1.4291625000000001 L 11.56942895507813 1.4756625 M 11.77042309570313 1.4291625000000001 L 11.81467309570313 1.4291625000000001 L 12.03592309570313 1.9616625 L 11.98042309570313 1.9616625 L 11.91142309570313 1.7951625 L 11.67217309570313 1.7951625 L 11.60392309570313 1.9616625 L 11.54767309570313 1.9616625 L 11.77042309570313 1.4291625000000001 M 11.89942309570313 1.7539125 L 11.79217309570313 1.4906625 L 11.68342309570313 1.7539125 L 11.89942309570313 1.7539125 M 12.17244213867188 1.5259125 L 12.17244213867188 1.9616625 L 12.119942138671881 1.9616625 L 12.119942138671881 1.4291625000000001 L 12.163442138671881 1.4291625000000001 L 12.51294213867188 1.8731625 L 12.51294213867188 1.4299125 L 12.56544213867188 1.4299125 L 12.56544213867188 1.9616625 L 12.51669213867188 1.9616625 L 12.17244213867188 1.5259125 M 12.67117163085938 1.6916625 Q 12.67117163085938 1.6429125 12.68804663085938 1.5960375 Q 12.704921630859381 1.5491625 12.73717163085938 1.5105375 Q 12.76942163085938 1.4719125000000002 12.81667163085938 1.4490375000000002 Q 12.86392163085938 1.4261625000000002 12.92392163085938 1.4261625000000002 Q 12.99517163085938 1.4261625000000002 13.04579663085938 1.4587875000000001 Q 13.09642163085938 1.4914125 13.120421630859381 1.5424125000000002 L 13.079171630859381 1.5679125 Q 13.06192163085938 1.5326625 13.035671630859381 1.5120375000000001 Q 13.00942163085938 1.4914125 12.979796630859381 1.4824125000000001 Q 12.95017163085938 1.4734125 12.92092163085938 1.4734125 Q 12.87292163085938 1.4734125 12.836171630859381 1.4925375 Q 12.799421630859381 1.5116625000000001 12.77429663085938 1.5435375 Q 12.749171630859381 1.5754125 12.73642163085938 1.6147875 Q 12.72367163085938 1.6541625 12.72367163085938 1.6946625000000002 Q 12.72367163085938 1.7389125 12.73867163085938 1.7794125 Q 12.753671630859381 1.8199125 12.78067163085938 1.8510375000000001 Q 12.80767163085938 1.8821625000000002 12.844046630859381 1.9005375 Q 12.88042163085938 1.9189125 12.92317163085938 1.9189125 Q 12.95317163085938 1.9189125 12.984671630859381 1.9084125 Q 13.01617163085938 1.8979125000000001 13.04354663085938 1.8761625000000002 Q 13.070921630859381 1.8544125 13.08742163085938 1.8199125 L 13.130921630859381 1.8424125 Q 13.11442163085938 1.8821625000000002 13.079921630859381 1.9099125000000001 Q 13.04542163085938 1.9376625 13.00304663085938 1.9519125000000002 Q 12.96067163085938 1.9661625 12.92017163085938 1.9661625 Q 12.86542163085938 1.9661625 12.81967163085938 1.9425375 Q 12.77392163085938 1.9189125 12.74054663085938 1.8795375 Q 12.707171630859381 1.8401625000000001 12.68917163085938 1.7910375 Q 12.67117163085938 1.7419125000000002 12.67117163085938 1.6916625 M 13.217898193359382 1.4291625000000001 L 13.391898193359381 1.7156625 L 13.56739819335938 1.4291625000000001 L 13.624398193359381 1.4291625000000001 L 13.41814819335938 1.7636625000000001 L 13.41814819335938 1.9616625 L 13.36564819335938 1.9616625 L 13.36564819335938 1.7621625 L 13.160148193359381 1.4291625000000001 L 13.217898193359382 1.4291625000000001" fill="#ff6b00" fill-rule="nonzero"></path></g><g transform="matrix(-1,0,0,1,13.636398925781247,0)" clip-path="url(#SvgjsClipPath1001)"><g clip-path="url(#b41d3fa69-5425-48c1-8eeb-1382fa9b24ecf79b0409-726d-443d-9423-537703bc2cfe)"><path d=" M 6.546257248908019 -0.5227561412415938 C 6.011034640807384 -0.9579003640023989 5.643265186497994 -1.4796692890578824 5.482724992374217 -2.0316957068117527 C 5.355739240944081 -2.4681161682803987 5.399184533623487 -2.7826558331502707 5.404555371518983 -2.8170611016491396 L 5.4386415803408905 -3.035616980366836 L 5.442098060174626 -3.058110687592526 L 5.4631559988539955 -3.0666721222576228 L 5.668151841300886 -3.149999874557046 C 5.689954252559828 -3.1588803688991036 6.209755642940725 -3.367651750856689 6.8182024469037135 -3.367651750856689 C 7.425000775869074 -3.367651750856689 7.946291111409117 -3.1588803688991036 7.968199875893714 -3.149999874557046 L 8.173248894953431 -3.0666721222576228 L 8.194306833632801 -3.058110687592526 L 8.197763313466535 -3.035616980366836 L 8.231849522288444 -2.8170079250363127 C 8.23722036018394 -2.782443126698964 8.280399769799212 -2.467371695700825 8.15367990143321 -2.031695706811753 C 7.993086530696605 -1.4796692890578826 7.625317076387216 -0.9579003640023989 7.090147644899407 -0.5227561412415938 L 6.843514514609217 -0.32228031088497167 L 6.8182024469037135 -0.3017009617210431 L 6.792837202585382 -0.32228031088497167 Z" fill="#d4d6c9" transform="matrix(1,0,0,1,0,0)" fill-rule="nonzero"></path></g><g clip-path="url(#b41d3fa69-5425-48c1-8eeb-1382fa9b24ecf79b0409-726d-443d-9423-537703bc2cfe)"><path d=" M 6.546257248908019 -0.5227561412415938 C 6.011034640807384 -0.9579003640023989 5.643265186497994 -1.4796692890578824 5.482724992374217 -2.0316957068117527 C 5.355739240944081 -2.4681161682803987 5.399184533623487 -2.7826558331502707 5.404555371518983 -2.8170611016491396 L 5.4386415803408905 -3.035616980366836 L 5.442098060174626 -3.058110687592526 L 5.4631559988539955 -3.0666721222576228 L 5.668151841300886 -3.149999874557046 C 5.689954252559828 -3.1588803688991036 6.209755642940725 -3.367651750856689 6.8182024469037135 -3.367651750856689 C 7.425000775869074 -3.367651750856689 7.946291111409117 -3.1588803688991036 7.968199875893714 -3.149999874557046 L 8.173248894953431 -3.0666721222576228 L 8.194306833632801 -3.058110687592526 L 8.197763313466535 -3.035616980366836 L 8.231849522288444 -2.8170079250363127 C 8.23722036018394 -2.782443126698964 8.280399769799212 -2.467371695700825 8.15367990143321 -2.031695706811753 C 7.993086530696605 -1.4796692890578826 7.625317076387216 -0.9579003640023989 7.090147644899407 -0.5227561412415938 L 6.843514514609217 -0.32228031088497167 L 6.8182024469037135 -0.3017009617210431 L 6.792837202585382 -0.32228031088497167 Z" fill="none" transform="matrix(1,0,0,1,0,0)" fill-rule="nonzero" stroke-dasharray="none" stroke-miterlimit="10" stroke-linejoin="miter" stroke-linecap="butt" stroke-width="0.08029668536830209" stroke="#ff6b00"></path></g><g clip-path="url(#b41d3fa69-5425-48c1-8eeb-1382fa9b24ecf79b0409-726d-443d-9423-537703bc2cfe)"><path d=" M 5.6401277663412195 -2.901346032979443 L 5.621728658303185 -2.7831875992785378 C 5.614762522022889 -2.7387319509554247 5.4662934190107695 -1.6840270121508525 6.684888678547201 -0.6932935385767887 L 6.818202446903713 -0.5849196016359945 L 6.9515162152602255 -0.6932935385767887 C 8.170111474796656 -1.6840270121508527 8.02158919517171 -2.7387319509554247 8.01467623550424 -2.7831875992785378 L 7.996277127466206 -2.901346032979443 C 7.746453400406415 -3.022322827160163 7.376025115455692 -3.090761127868113 7.376025115455692 -3.090761127868113 L 7.717844382705656 -2.7979706976443577 L 7.55937807648212 -2.697573252627566 L 7.744273159280521 -2.5549535770263834 L 7.311043294581477 -1.7995266152104237 L 7.633293568311219 -2.5496890923565414 L 7.406176254928425 -2.6923087679577242 L 7.585753676444158 -2.813817328266711 L 7.361986489669446 -3.035510627141182 L 7.089030936030046 -1.5682615260271484 L 7.0890841126428725 -1.5681551728014949 L 7.088765052965912 -1.5678892897373615 L 7.089030936030046 -1.5681551728014949 L 6.878185666172219 -2.8568903846563303 L 7.057337674785338 -2.9309654063239092 L 7.086425282001538 -2.809669552466229 L 7.311521884096917 -2.996106757036605 L 7.1051434497165324 -2.8921996555732523 L 7.013360615977666 -3.140428084248242 C 6.9527924539680654 -3.145213979402644 6.88701298390145 -3.1478196334311517 6.8182024469037135 -3.1478196334311517 C 6.753060467039592 -3.1479045269867663 6.687940139617377 -3.1454387886289106 6.622991101216931 -3.1404280842482417 L 6.531208267478066 -2.8921996555732523 L 6.324829833097682 -2.996106757036605 L 6.549926435193061 -2.809669552466229 L 6.57837592305534 -2.931231289388043 L 6.758219227635206 -2.8568903846563303 L 6.5473739577773795 -1.5681551728014949 L 6.5473739577773795 -1.5682615260271484 L 6.27441840413798 -3.035510627141182 L 6.050651217363267 -2.813817328266711 L 6.230281815491827 -2.6923087679577242 L 6.0031113254962065 -2.5496890923565414 L 6.325361599225949 -1.7995266152104237 L 5.892184911139731 -2.5549535770263834 L 6.077079993938132 -2.697573252627566 L 5.918613687714596 -2.7979706976443577 L 6.260379778351734 -3.090761127868113 C 6.260379778351734 -3.090761127868113 5.88995149340101 -3.022322827160163 5.6401277663412195 -2.901346032979443" fill="#343432" transform="matrix(1,0,0,1,0,0)" fill-rule="nonzero"></path></g></g></g><defs><clipPath id="SvgjsClipPath1001"><path d=" M 5.352974057077093 -3.4078611649062855 h 2.930450811627062 v 3.1578611649062855 h -2.930450811627062 Z"></path></clipPath><clipPath id="b41d3fa69-5425-48c1-8eeb-1382fa9b24ecf79b0409-726d-443d-9423-537703bc2cfe"><path d=" M 5.299797444250403 -3.4610298829803563 L 8.336607449557022 -3.4610298829803563 L 8.336607449557022 -0.19678350461398297 L 5.299797444250403 -0.19678350461398297 Z"></path></clipPath></defs></svg>